<?xml version="1.0" encoding="UTF-8" standalone="no"?>
<svg
        xmlns:dc="http://purl.org/dc/elements/1.1/"
        xmlns:cc="http://creativecommons.org/ns#"
        xmlns:rdf="http://www.w3.org/1999/02/22-rdf-syntax-ns#"
        xmlns:sodipodi="http://sodipodi.sourceforge.net/DTD/sodipodi-0.dtd"
        xmlns:inkscape="http://www.inkscape.org/namespaces/inkscape"
        xmlns="http://www.w3.org/2000/svg"
        version="1.1"
        id="Layer_1"
        x="0px"
        y="0px"
        viewBox="0 0 115.69 122.88"
        style="enable-background:new 0 0 115.69 122.88"
        xml:space="preserve"
        sodipodi:docname="alarm.svg"
        inkscape:version="1.0.1 (3bc2e813f5, 2020-09-07)"><metadata
   id="metadata13"><rdf:RDF><cc:Work
       rdf:about=""><dc:format>image/svg+xml</dc:format><dc:type
        rdf:resource="http://purl.org/dc/dcmitype/StillImage"/></cc:Work></rdf:RDF></metadata>
    <defs
            id="defs11"/>
    <sodipodi:namedview
            pagecolor="#ffffff"
            bordercolor="#666666"
            borderopacity="1"
            objecttolerance="10"
            gridtolerance="10"
            guidetolerance="10"
            inkscape:pageopacity="0"
            inkscape:pageshadow="2"
            inkscape:window-width="1920"
            inkscape:window-height="1080"
            id="namedview9"
            showgrid="false"
            inkscape:zoom="5.818685"
            inkscape:cx="57.845001"
            inkscape:cy="61.268138"
            inkscape:window-x="0"
            inkscape:window-y="0"
            inkscape:window-maximized="1"
            inkscape:current-layer="g6"/>
    <style
            type="text/css"
            id="style2">.st0{fill-rule:evenodd;clip-rule:evenodd;}</style>
    <g
            id="g6"><path
     class="st0"
     d="M26.34,8.77c7.73-0.31,14.84,2.62,20.02,7.57C25.98,18.68,9.94,34.54,6.98,54.45 c-4.11-4.59-6.7-10.57-6.96-17.2C-0.57,22.11,11.21,9.36,26.34,8.77L26.34,8.77L26.34,8.77z M95.07,76.88l-45.16,6.38l0.29-3.31 l-0.07,0l0.44-4.08l0.16-1.81h0.03l4.13-38.43l3.96,38.95L95.07,76.88L95.07,76.88L95.07,76.88z M56.03,0h6.27 c1.18,0,2.14,0.96,2.14,2.14v17.87c24.26,2.8,43.11,23.41,43.11,48.42c0,11.57-4.04,22.21-10.78,30.57l10.12,17.53 c0.59,1.02,0.24,2.34-0.78,2.93l-5.44,3.14c-1.02,0.59-2.33,0.24-2.93-0.78l-8.73-15.13c-8.3,6.57-18.8,10.5-30.21,10.5 c-11.06,0-21.27-3.69-29.45-9.91l-8.39,14.53c-0.59,1.02-1.9,1.37-2.93,0.78l-5.43-3.14c-1.02-0.59-1.37-1.9-0.78-2.93l9.67-16.74 c-7.13-8.47-11.43-19.41-11.43-31.35c0-25.26,19.22-46.03,43.83-48.5V2.14C53.88,0.96,54.85,0,56.03,0L56.03,0z M89.34,8.77 c-7.73-0.31-14.83,2.62-20.02,7.57c20.39,2.34,36.43,18.2,39.39,38.11c4.1-4.59,6.69-10.57,6.96-17.2 C116.26,22.11,104.48,9.36,89.34,8.77L89.34,8.77L89.34,8.77z"
     id="path4"
     style="fill:#000000;fill-opacity:1" />
        <path
                style="fill:#000000;fill-opacity:1;stroke-width:0.17186"
                d="m 99.140656,122.74681 c -0.209236,-0.0335 -0.595921,-0.26861 -0.8593,-0.52242 -0.263381,-0.25382 -2.447146,-3.88278 -4.852812,-8.06437 -3.942677,-6.85326 -4.403355,-7.5819 -4.672299,-7.38999 -0.164099,0.1171 -0.998628,0.7156 -1.854509,1.33 -6.581236,4.72438 -14.368841,7.71137 -22.621911,8.67678 -2.539052,0.29701 -7.997644,0.34171 -10.301677,0.0844 -8.530695,-0.95285 -16.371359,-3.86092 -22.93462,-8.50636 -0.865711,-0.61275 -1.627845,-1.11255 -1.69363,-1.11068 -0.06578,0.002 -1.974412,3.23069 -4.241392,7.17516 -2.26698,3.94447 -4.366681,7.4231 -4.666002,7.7303 -0.444952,0.45666 -0.677061,0.55855 -1.272489,0.55855 -0.610319,0 -1.205457,-0.27704 -3.674643,-1.71054 -1.620507,-0.94079 -3.121004,-1.89642 -3.334437,-2.12361 -0.536778,-0.57137 -0.655399,-1.47149 -0.287639,-2.18266 0.162256,-0.31377 2.414161,-4.23711 5.004232,-8.71852 2.665775,-4.61241 4.656947,-8.235622 4.588752,-8.34988 C 21.40002,99.511957 20.947599,98.918438 20.460895,98.304038 16.19185,92.914887 12.873403,85.94501 11.378345,79.227523 9.2354999,69.59945 9.988125,59.546944 13.516874,50.664062 19.828969,34.774694 33.865128,23.370894 50.692102,20.460726 c 1.122889,-0.194199 2.299717,-0.35309 2.615175,-0.35309 h 0.573557 l 0.04866,-9.245237 c 0.0447,-8.4942725 0.07328,-9.282801 0.351806,-9.7077037 0.668064,-1.01916243 0.892924,-1.06876523 4.84493,-1.06876523 3.085192,0 3.695478,0.04309238 4.15216,0.29318464 1.107614,0.6065626 1.097299,0.50710879 1.097299,10.57909929 v 9.101738 l 1.933427,0.295343 c 15.94154,2.435176 30.117047,13.234404 36.812654,28.044737 4.70598,10.409381 5.60318,22.423111 2.48832,33.319463 -1.56935,5.48989 -4.86919,12.045384 -8.192628,16.2756 l -0.774432,0.985728 5.13402,8.899067 c 5.58572,9.68203 5.68241,9.89746 4.89281,10.90128 -0.3878,0.49301 -5.81501,3.67491 -6.63844,3.89202 -0.28068,0.074 -0.681526,0.10714 -0.890761,0.0736 z m -47.9982,-39.562981 c 4.220892,-0.610332 43.808199,-6.190488 43.917179,-6.190488 0.07497,0 0.08947,-0.04683 0.03224,-0.104065 -0.0951,-0.0951 -7.80658,-0.609662 -28.524969,-1.903366 -6.539744,-0.408355 -7.690583,-0.519131 -7.689689,-0.740174 0.0022,-0.552483 -3.803323,-37.921008 -3.903164,-38.326968 -0.06293,-0.25587 -0.129044,-0.325382 -0.163465,-0.17186 -0.12202,0.544238 -4.675365,43.483914 -4.783835,45.113286 -0.06292,0.945231 -0.155366,1.89261 -0.205424,2.105287 -0.103897,0.441426 -0.15883,0.432346 1.32113,0.218348 z"
                id="path838"/>
        <path
                style="fill:#000000;fill-opacity:1;stroke-width:0.17186"
                d="m 99.171253,122.75082 c -0.192408,-0.0313 -0.554346,-0.22773 -0.804306,-0.43649 -0.24996,-0.20876 -2.412646,-3.77265 -4.805972,-7.91976 -2.393325,-4.14711 -4.444915,-7.5763 -4.559091,-7.62042 -0.114175,-0.0441 -0.655534,0.26416 -1.20302,0.68508 -5.234121,4.02412 -12.440968,7.26452 -19.20081,8.63324 -6.152142,1.24567 -13.308477,1.27361 -19.236301,0.0751 -6.663708,-1.34727 -13.321563,-4.20479 -18.5522,-7.96252 -0.738298,-0.53039 -1.395663,-0.96188 -1.460812,-0.95885 -0.06515,0.003 -1.973777,3.23185 -4.241398,7.17516 -2.267619,3.94331 -4.36732,7.421 -4.666002,7.7282 -0.446078,0.4588 -0.674595,0.55855 -1.27963,0.55855 -0.621383,0 -1.196027,-0.26749 -3.674553,-1.71044 -1.615889,-0.94074 -3.112649,-1.89637 -3.326133,-2.12361 -0.538246,-0.57294 -0.655534,-1.47151 -0.285477,-2.18712 0.163494,-0.31616 2.129867,-3.75029 4.369718,-7.63141 2.239852,-3.88111 4.356807,-7.56629 4.704347,-8.18927 l 0.631889,-1.132706 -1.143583,-1.445198 C 8.5841111,83.308189 6.8426803,61.922317 16.110234,45.141679 23.133607,32.424548 35.170976,23.571853 49.335412,20.706739 c 1.135659,-0.229716 2.622986,-0.469357 3.305173,-0.532538 l 1.24034,-0.114873 0.04861,-9.221083 c 0.04466,-8.4712353 0.07326,-9.2586893 0.351761,-9.6835497 0.670117,-1.02229611 0.884515,-1.06876523 4.931027,-1.06876523 3.288581,0 3.753738,0.03475173 4.160361,0.31081947 1.010113,0.68579446 1.003001,0.61090896 1.003001,10.56146446 v 9.101738 l 1.933427,0.295343 c 2.543899,0.388596 6.603208,1.431829 9.065622,2.329841 2.602806,0.949211 7.007851,3.117828 9.364393,4.610115 7.956725,5.038625 14.553109,12.601387 18.358003,21.047469 6.1122,13.567839 5.77758,28.818613 -0.92275,42.055712 -1.19544,2.361702 -3.359699,5.818221 -4.755148,7.594406 l -0.772659,0.983471 5.175217,8.978001 c 4.52245,7.8456 5.17521,9.06838 5.17521,9.69449 0,0.45433 -0.12476,0.87509 -0.34097,1.14996 -0.37768,0.48013 -5.81743,3.6616 -6.62461,3.87443 -0.280684,0.074 -0.667761,0.10895 -0.860168,0.0776 z M 73.049406,80.076055 C 85.145489,78.370547 95.066552,76.950867 95.09621,76.92121 95.218849,76.798568 92.713912,76.622757 76.234036,75.597345 66.734467,75.006261 58.952557,74.517861 58.940905,74.512009 58.929251,74.506157 58.055575,65.916955 56.9994,55.424894 55.943224,44.932833 55.031675,36.155076 54.973732,35.918768 c -0.06273,-0.255832 -0.128771,-0.325358 -0.163243,-0.17186 -0.110212,0.490756 -4.675799,43.572883 -4.780838,45.113286 -0.05801,0.850708 -0.14864,1.767556 -0.201401,2.037441 -0.09469,0.484366 -0.08738,0.489336 0.566173,0.38502 0.364156,-0.05812 10.558899,-1.501093 22.654983,-3.2066 z"
                id="path840"/>
        <path
                style="fill:#000000;fill-opacity:1;stroke-width:0.17186"
                d="m 99.171253,122.75082 c -0.192408,-0.0313 -0.554509,-0.22773 -0.804667,-0.43649 -0.250159,-0.20876 -2.267699,-3.51171 -4.483423,-7.3399 -5.000274,-8.63915 -4.767578,-8.24929 -4.923738,-8.24929 -0.0716,0 -0.471963,0.26098 -0.889706,0.57995 -1.656727,1.26501 -4.863974,3.2624 -7.045439,4.38772 -6.996882,3.60938 -14.213705,5.34394 -22.234048,5.34394 -9.926312,0 -18.834391,-2.70888 -27.096096,-8.23971 -1.746763,-1.16938 -2.338243,-1.48589 -2.486435,-1.33052 -0.106945,0.11212 -2.024425,3.37467 -4.261066,7.25012 -2.23664,3.87545 -4.296462,7.25894 -4.577382,7.51888 -0.934622,0.86482 -1.547777,0.71429 -4.801845,-1.17884 -1.559631,-0.90735 -3.047406,-1.84855 -3.306168,-2.09156 -0.611797,-0.57455 -0.777209,-1.44429 -0.41796,-2.19764 0.150746,-0.31612 2.158901,-3.84568 4.462567,-7.84348 2.303667,-3.9978 4.432034,-7.70124 4.729705,-8.22986 l 0.541219,-0.961137 -0.95411,-1.187117 C 19.340794,96.950969 17.560843,94.2867 16.358546,92.16327 8.0790376,77.540456 8.139425,58.890232 16.513115,44.425845 23.20385,32.868529 33.787695,24.715311 46.416302,21.390056 c 2.355813,-0.620313 5.910916,-1.28242 6.885791,-1.28242 h 0.578741 l 0.04866,-9.245237 c 0.0447,-8.4942725 0.07328,-9.282801 0.351806,-9.7077037 0.670117,-1.02229611 0.884515,-1.06876523 4.931027,-1.06876523 3.389972,0 3.74443,0.0283562 4.198613,0.33588405 0.964743,0.65322678 0.964749,0.65330198 0.964749,10.54787188 v 9.090266 l 1.933427,0.295343 c 7.873433,1.202718 15.948818,4.716882 22.45335,9.771015 2.307533,1.792995 6.264278,5.709149 8.048923,7.966357 5.647481,7.142895 9.084461,15.288818 10.285921,24.378492 0.36239,2.741663 0.40962,8.47379 0.092,11.170909 -0.7151,6.073173 -2.31752,11.427324 -5.01497,16.756364 -1.17333,2.318022 -3.292114,5.7119 -4.743282,7.597802 l -0.768837,0.999162 4.972309,8.633994 c 2.73477,4.74869 5.06009,8.80292 5.16737,9.00938 0.3095,0.59563 0.23668,1.67359 -0.14591,2.15999 -0.37768,0.48013 -5.81743,3.6616 -6.62461,3.87443 -0.28068,0.074 -0.667757,0.10895 -0.860164,0.0776 z M 72.359155,80.175527 c 12.368133,-1.74715 22.518114,-3.207238 22.555514,-3.244638 0.145199,-0.1452 -1.967519,-0.296913 -18.723598,-1.344543 -14.519014,-0.907763 -17.314909,-1.122836 -17.314909,-1.331933 0,-0.539615 -3.796506,-37.760987 -3.892629,-38.163784 -0.05639,-0.236308 -0.129976,-0.352314 -0.163516,-0.257791 -0.03354,0.09452 -0.991177,8.87228 -2.128079,19.506126 -2.53459,23.706909 -2.540782,23.766619 -2.673482,25.77902 -0.05921,0.897969 -0.145096,1.768011 -0.19085,1.933427 -0.04576,0.165415 -0.05457,0.300755 -0.01958,0.300755 0.03499,0 10.182995,-1.429488 22.551129,-3.176639 z"
                id="path842"/>
        <path
                style="fill:#ffffff;fill-opacity:1;stroke-width:0.17186"
                d="m 99.140656,122.74681 c -0.209236,-0.0335 -0.595921,-0.26861 -0.8593,-0.52242 -0.263381,-0.25382 -2.359315,-3.70964 -4.657632,-7.67961 -2.298318,-3.96997 -4.288579,-7.36665 -4.422801,-7.54818 -0.237427,-0.3211 -0.261585,-0.31711 -0.891116,0.14708 -8.989856,6.62872 -18.730225,9.89307 -29.519575,9.89307 -9.734083,0 -18.596179,-2.65607 -26.825674,-8.03995 -1.331844,-0.87132 -2.502145,-1.58421 -2.600669,-1.58421 -0.09852,0 -2.047717,3.22882 -4.331543,7.17516 -2.283825,3.94633 -4.382236,7.38783 -4.663134,7.64777 -0.934556,0.86482 -1.547737,0.71429 -4.801804,-1.17884 -1.559631,-0.90735 -3.047406,-1.84855 -3.306168,-2.09156 -0.56211,-0.52789 -0.771841,-1.43023 -0.481226,-2.07041 0.114717,-0.25271 2.324278,-4.13952 4.910135,-8.63737 2.585857,-4.49785 4.725155,-8.258102 4.753996,-8.356119 0.02884,-0.09802 -0.577908,-1.019515 -1.34833,-2.047773 -6.082809,-8.118544 -9.315032,-16.957667 -9.84277,-26.916915 -0.933925,-17.624646 7.714405,-34.24676 22.758167,-43.74126 2.004348,-1.264995 6.174291,-3.351501 8.496656,-4.251453 3.187246,-1.235109 8.301271,-2.507386 11.132717,-2.769619 l 1.24034,-0.114873 0.04861,-9.221083 c 0.04466,-8.4712353 0.07326,-9.2586893 0.351761,-9.6835497 0.670117,-1.02229611 0.884515,-1.06876523 4.931027,-1.06876523 3.389972,0 3.74443,0.0283562 4.198613,0.33588405 0.964743,0.65322678 0.964749,0.65330198 0.964749,10.54787188 v 9.090266 l 1.933427,0.295343 c 7.873433,1.202718 15.948818,4.716882 22.45335,9.771015 2.307533,1.792995 6.264278,5.709149 8.048923,7.966357 5.646965,7.142236 9.079925,15.277843 10.286925,24.378492 0.35727,2.69375 0.40392,8.583588 0.0892,11.256839 -1.02131,8.673862 -4.18302,16.694858 -9.334587,23.681028 l -1.177618,1.597 4.623745,8.027164 c 2.54306,4.41495 4.86545,8.45878 5.16087,8.9863 0.63416,1.13241 0.70874,2.12761 0.20723,2.76518 -0.18144,0.23066 -1.3995,1.04305 -2.7068,1.8053 -3.54125,2.0648 -4.029712,2.28339 -4.819655,2.15684 z M 54.579659,82.676769 C 70.96825,80.377123 94.878327,76.967232 94.92216,76.923397 95.04718,76.798378 92.656396,76.628769 76.191071,75.594561 61.339483,74.661714 58.876162,74.470051 58.876162,74.247344 c 0,-0.537812 -3.797102,-37.746044 -3.893895,-38.156715 -0.0557,-0.236308 -0.127594,-0.352314 -0.159773,-0.257791 -0.109993,0.323097 -4.456463,41.134428 -4.703965,44.168055 -0.100255,1.2288 -0.216658,2.493464 -0.258674,2.810364 -0.07491,0.564961 -0.06567,0.57431 0.474209,0.480088 0.302831,-0.05285 2.213349,-0.329412 4.245595,-0.614576 z"
                id="path844"/>
        <path
                style="fill:#ffffff;fill-opacity:1;stroke-width:0.17186"
                d="M 6.1284952,53.276642 C 3.4091949,49.87273 1.5559846,45.903354 0.59210478,41.418293 c -0.56388388,-2.623828 -0.56388388,-7.85964 0,-10.483469 C 2.1818644,23.53746 6.295441,17.411152 12.372291,13.390713 22.460259,6.7165213 35.706764,7.4819682 44.986785,15.275336 l 1.148385,0.964414 -2.265476,0.386722 C 34.546043,18.218042 25.713088,22.882295 19.173424,29.667373 13.550607,35.501195 9.6201701,42.577852 7.778777,50.18316 7.4469318,51.553744 7.1097659,53.023148 7.0295194,53.448502 l -0.1459027,0.773371 z"
                id="path846"/>
        <path
                style="fill:#ffffff;fill-opacity:1;stroke-width:0.17186"
                d="m 108.48323,52.629154 c -0.71578,-3.90706 -2.19666,-8.194828 -4.18637,-12.121271 C 97.962665,28.008151 85.706735,18.996983 71.814904,16.625537 l -2.27088,-0.387658 1.325649,-1.10162 c 7.221556,-6.0011468 16.967543,-7.8411111 25.949077,-4.898978 9.2744,3.038069 16.21074,10.871549 18.25103,20.611613 0.51862,2.475795 0.63911,6.312382 0.27879,8.876795 -0.50584,3.600083 -1.74806,7.2276 -3.5,10.220708 -0.73537,1.256352 -2.6285,3.898054 -2.92462,4.081068 -0.0949,0.05866 -0.2833,-0.539038 -0.44072,-1.398311 z"
                id="path848"/></g></svg>
